<svg width="150" height="150" viewBox="0 0 150 150" fill="none" xmlns="http://www.w3.org/2000/svg">
<rect width="150" height="150" rx="15" fill="#F6F6F6"/>
<path d="M19.2714 90.96C16.4554 90.96 13.9274 90.448 11.6874 89.424C9.51137 88.4 7.65537 86.992 6.11937 85.2C4.58337 83.344 3.39937 81.168 2.56738 78.672C1.79937 76.176 1.41537 73.456 1.41537 70.512C1.41537 66.288 2.15138 62.256 3.62338 58.416C5.15937 54.512 7.17537 51.12 9.67138 48.24C12.1674 45.296 15.0794 42.96 18.4074 41.232C21.7354 39.504 25.2234 38.64 28.8714 38.64C32.1354 38.64 34.9194 39.472 37.2234 41.136C39.5274 42.8 41.1274 45.04 42.0234 47.856L47.9754 19.92H63.4314L52.1034 72.72C52.0394 73.168 51.9754 73.552 51.9114 73.872C51.9114 74.128 51.9114 74.416 51.9114 74.736C51.9114 76.208 52.7114 76.976 54.3114 77.04L51.6234 90C50.1514 90.32 48.8714 90.512 47.7834 90.576C46.7594 90.704 45.8634 90.768 45.0954 90.768C42.6634 90.768 40.6794 90.288 39.1434 89.328C37.6074 88.368 36.8394 86.8 36.8394 84.624C36.8394 83.856 36.9674 82.864 37.2234 81.648C34.8554 84.784 32.0714 87.12 28.8714 88.656C25.7354 90.192 22.5354 90.96 19.2714 90.96ZM26.1834 78C28.1034 78 30.0554 77.392 32.0394 76.176C34.0234 74.896 35.7514 73.168 37.2234 70.992L39.4314 60.432C39.1114 57.872 38.1514 55.792 36.5514 54.192C34.9514 52.528 33.1274 51.696 31.0794 51.696C29.3514 51.696 27.6554 52.176 25.9914 53.136C24.3914 54.032 22.9514 55.248 21.6714 56.784C20.4554 58.256 19.4634 59.984 18.6954 61.968C17.9914 63.888 17.6394 65.904 17.6394 68.016C17.6394 70.896 18.3754 73.296 19.8474 75.216C21.3834 77.072 23.4954 78 26.1834 78ZM89.3311 90.96C85.6831 90.96 82.6751 90.16 80.3071 88.56C77.9391 86.896 76.3071 84.592 75.4111 81.648L73.6831 90H60.2431L75.1231 19.92H90.4831L84.5311 47.856C86.5791 45.04 89.1071 42.8 92.1151 41.136C95.1231 39.472 98.2911 38.64 101.619 38.64C104.243 38.64 106.579 39.184 108.627 40.272C110.675 41.296 112.371 42.736 113.715 44.592C115.123 46.384 116.179 48.528 116.883 51.024C117.587 53.456 117.939 56.112 117.939 58.992C117.939 63.408 117.139 67.568 115.539 71.472C113.939 75.312 111.827 78.704 109.203 81.648C106.579 84.528 103.539 86.8 100.083 88.464C96.6271 90.128 93.0431 90.96 89.3311 90.96ZM87.9871 78C89.7791 78 91.5071 77.584 93.1711 76.752C94.8351 75.856 96.3071 74.704 97.5871 73.296C98.8671 71.824 99.8911 70.128 100.659 68.208C101.427 66.288 101.811 64.24 101.811 62.064C101.811 59.184 101.107 56.752 99.6991 54.768C98.3551 52.72 96.4671 51.696 94.0351 51.696C91.8591 51.696 89.6511 52.528 87.4111 54.192C85.2351 55.856 83.4111 57.936 81.9391 60.432L79.6351 70.992C80.2751 73.168 81.2671 74.896 82.6111 76.176C84.0191 77.392 85.8111 78 87.9871 78Z" transform="translate(15 19)" fill="#A23D30"/>
</svg>
