<svg width="45" height="45" viewBox="0 0 45 45" fill="none" xmlns="http://www.w3.org/2000/svg">
<path d="M4.92435 22H0.363312V7.31205H4.92435V22ZM2.64137 5.30848C1.18322 5.30848 0 4.10045 0 2.64196C0 1.18348 1.18322 0 2.64137 0C4.09953 0 5.28275 1.18348 5.28275 2.64196C5.28275 4.10045 4.09953 5.30848 2.64137 5.30848ZM21.9951 22H17.4439V14.85C17.4439 13.146 17.4095 10.9607 15.0725 10.9607C12.7012 10.9607 12.3379 12.8121 12.3379 14.7272V22H7.78174V7.31205H12.1562V9.31563H12.22C12.8288 8.16161 14.3164 6.94375 16.5356 6.94375C21.1506 6.94375 22 9.98348 22 13.9317V22H21.9951Z" transform="translate(12 11)" fill="#A23D30"/>
<rect x="1" y="1" width="43" height="43" stroke="#A23D30" stroke-width="2"/>
</svg>
