<svg width="45" height="45" viewBox="0 0 45 45" fill="none" xmlns="http://www.w3.org/2000/svg">
<path d="M25.1219 5.73201C25.1397 5.98356 25.1397 6.23517 25.1397 6.48672C25.1397 14.1593 19.3656 23 8.81221 23C5.56092 23 2.54063 22.0476 0 20.3946C0.461947 20.4484 0.906066 20.4664 1.38579 20.4664C4.06849 20.4664 6.53808 19.55 8.51017 17.9867C5.98732 17.9328 3.87309 16.2617 3.14465 13.9617C3.50001 14.0156 3.85532 14.0515 4.22845 14.0515C4.74367 14.0515 5.25893 13.9796 5.7386 13.8539C3.10916 13.3148 1.13701 10.9789 1.13701 8.1578V8.08595C1.90095 8.51721 2.78935 8.78673 3.73091 8.82263C2.18521 7.78042 1.17256 6.00154 1.17256 3.98902C1.17256 2.91092 1.45677 1.92264 1.95427 1.06013C4.77916 4.582 9.02539 6.88196 13.7868 7.13357C13.698 6.70232 13.6446 6.25314 13.6446 5.80391C13.6446 2.60544 16.203 0 19.3832 0C21.0355 0 22.5279 0.700779 23.5761 1.83281C24.8731 1.58126 26.1167 1.09608 27.2183 0.431253C26.7918 1.77894 25.8858 2.91097 24.6954 3.62967C25.8503 3.50395 26.9696 3.18044 28 2.73127C27.2184 3.88122 26.2412 4.9054 25.1219 5.73201Z" transform="translate(9 10)" fill="#A23D30"/>
<rect x="1" y="1" width="43" height="43" stroke="#A23D30" stroke-width="2"/>
</svg>
