<?xml version="1.0" encoding="UTF-8"?>
<svg width="160px" height="86px" viewBox="0 0 160 86" version="1.1" xmlns="http://www.w3.org/2000/svg" xmlns:xlink="http://www.w3.org/1999/xlink">
    <!-- Generator: Sketch 42 (36781) - http://www.bohemiancoding.com/sketch -->
    <title>Logo</title>
    <desc>Created with Sketch.</desc>
    <defs></defs>
    <g id="Homepage" stroke="none" stroke-width="1" fill="none" fill-rule="evenodd">
        <g id="Homepage-Copy" transform="translate(-279.000000, -16.000000)">
            <g id="Logo" transform="translate(279.000000, 16.000000)">
                <path d="M29.0372157,48.9441176 L23.3509412,48.9441176 L23.3509412,67.3676471 L29.0372157,67.3676471 L29.0372157,59.6723529 C29.0372157,58.762549 29.0878039,57.9284314 29.1889804,57.1707843 C29.2897647,56.4119608 29.5113333,55.7617647 29.8525098,55.2178431 C30.1936863,54.6747059 30.6799608,54.2511765 31.3117255,53.9480392 C31.943098,53.644902 32.8027059,53.4935294 33.8893725,53.4935294 C34.3191765,53.4935294 34.7293725,53.5256863 35.1215294,53.5880392 C35.5132941,53.6511765 35.9113333,53.7460784 36.3156471,53.8723529 L36.3156471,48.6790196 C36.0372157,48.6029412 35.7340784,48.5527451 35.4058431,48.5272549 C35.0772157,48.5021569 34.7485882,48.4892157 34.4203529,48.4892157 C33.1564314,48.4892157 32.1078039,48.7735294 31.2740784,49.342549 C30.4399608,49.9107843 29.7195686,50.7641176 29.1132941,51.9009804 L29.0372157,51.9009804 L29.0372157,48.9441176 Z M14.3293725,24.3762745 C14.3293725,25.7664706 13.9313333,26.8911765 13.1352549,27.75 C12.3391765,28.6096078 11.2207451,29.0390196 9.78035294,29.0390196 C8.33996078,29.0390196 7.22152941,28.6096078 6.42545098,27.75 C5.62937255,26.8911765 5.23133333,25.7664706 5.23133333,24.3762745 C5.23133333,22.9864706 5.62937255,21.8617647 6.42545098,21.0021569 C7.22152941,20.1433333 8.33996078,19.7135294 9.78035294,19.7135294 C11.2207451,19.7135294 12.3391765,20.1433333 13.1352549,21.0021569 C13.9313333,21.8617647 14.3293725,22.9864706 14.3293725,24.3762745 L14.3293725,24.3762745 Z M19.3709412,28.3566667 C19.8003529,27.1943137 20.0156471,25.9178431 20.0156471,24.5276471 C20.0156471,23.2390196 19.8195686,22.0068627 19.4278039,20.8315686 C19.0356471,19.6566667 18.4803529,18.6143137 17.7599608,17.7041176 C17.0395686,16.7943137 16.1611373,16.0684314 15.125451,15.5245098 C14.0889804,14.9813725 12.9136863,14.7096078 11.5999608,14.7096078 C10.4117255,14.7096078 9.30662745,14.8931373 8.28270588,15.2594118 C7.25956863,15.6256863 6.41878431,16.2511765 5.76192157,17.1358824 L5.68623529,17.1358824 L5.68623529,0.391960784 L-3.92156862e-05,3.54372549 L-3.92156862e-05,30.6260784 L-3.92156862e-05,33.5880392 L-3.92156862e-05,35.7515686 L5.68623529,32.5998039 L5.68623529,31.6413725 C5.83878431,31.8147059 6.00780392,31.9896078 6.198,32.1664706 C6.56388235,32.5076471 6.99407843,32.817451 7.48701961,33.095098 C7.97956863,33.3735294 8.51643137,33.6001961 9.098,33.777451 C9.67917647,33.9539216 10.298,34.0429412 10.9552549,34.0429412 C12.3199608,34.0429412 13.558,33.8088235 14.670549,33.3413725 C15.7823137,32.8743137 16.7364314,32.217451 17.5325098,31.3703922 C18.3285882,30.5237255 18.9411373,29.5194118 19.3709412,28.3566667 L19.3709412,28.3566667 Z M14.3293725,58.1558824 C14.3293725,59.5460784 13.9313333,60.6707843 13.1352549,61.5296078 C12.3391765,62.3892157 11.2207451,62.8186275 9.78035294,62.8186275 C8.33996078,62.8186275 7.22152941,62.3892157 6.42545098,61.5296078 C5.62937255,60.6707843 5.23133333,59.5460784 5.23133333,58.1558824 C5.23133333,56.7664706 5.62937255,55.6413725 6.42545098,54.7821569 C7.22152941,53.9233333 8.33996078,53.4935294 9.78035294,53.4935294 C11.2207451,53.4935294 12.3391765,53.9233333 13.1352549,54.7821569 C13.9313333,55.6413725 14.3293725,56.7664706 14.3293725,58.1558824 L14.3293725,58.1558824 Z M19.3709412,62.1366667 C19.8003529,60.9739216 20.0156471,59.6978431 20.0156471,58.3076471 C20.0156471,57.0186275 19.8195686,55.7864706 19.4278039,54.6115686 C19.0356471,53.4362745 18.4803529,52.3939216 17.7599608,51.4845098 C17.0395686,50.5743137 16.1611373,49.8484314 15.125451,49.3045098 C14.0889804,48.7609804 12.9136863,48.4892157 11.5999608,48.4892157 C10.4117255,48.4892157 9.30662745,48.6731373 8.28270588,49.0390196 C7.25956863,49.4056863 6.41878431,50.0311765 5.76192157,50.9154902 L5.68623529,50.9154902 L5.68623529,35.7543137 L-3.92156862e-05,38.9060784 L-3.92156862e-05,67.3676471 L5.23133333,67.3676471 L5.23133333,64.9413725 L5.30701961,64.9413725 C5.53447059,65.2703922 5.83133333,65.604902 6.198,65.9460784 C6.56388235,66.2876471 6.99407843,66.597451 7.48701961,66.875098 C7.97956863,67.1535294 8.51643137,67.3805882 9.098,67.5570588 C9.67917647,67.7335294 10.298,67.8229412 10.9552549,67.8229412 C12.3199608,67.8229412 13.558,67.5884314 14.670549,67.1217647 C15.7823137,66.6539216 16.7364314,65.9970588 17.5325098,65.15 C18.3285882,64.3037255 18.9411373,63.2990196 19.3709412,62.1366667 L19.3709412,62.1366667 Z M28.4685882,22.2911765 C28.4936863,21.8362745 28.6015294,21.4001961 28.7909412,20.9833333 C28.9803529,20.5664706 29.2458431,20.2001961 29.5870196,19.8841176 C29.9281961,19.5684314 30.3387843,19.3096078 30.8191765,19.1068627 C31.2987843,18.904902 31.8548627,18.8037255 32.4870196,18.8037255 C33.523098,18.8037255 34.3693725,19.144902 35.0266275,19.8272549 C35.6838824,20.5096078 35.9995686,21.3311765 35.9744706,22.2911765 L28.4685882,22.2911765 Z M28.4685882,26.1578431 L41.6607451,26.1578431 L41.6607451,24.3762745 C41.6607451,22.9107843 41.4583922,21.5841176 41.0544706,20.3958824 C40.6497647,19.2080392 40.0744706,18.1911765 39.3293725,17.3441176 C38.5838824,16.4978431 37.6740784,15.8468627 36.5999608,15.3919608 C35.525451,14.9370588 34.3313333,14.7096078 33.0176078,14.7096078 C31.6019216,14.7096078 30.2693725,14.9370588 29.0183922,15.3919608 C27.7674118,15.8468627 26.6803529,16.4978431 25.7583922,17.3441176 C24.8352549,18.1911765 24.1093725,19.2080392 23.5783922,20.3958824 C23.0478039,21.5841176 22.7823137,22.9107843 22.7823137,24.3762745 C22.7823137,25.8421569 23.0478039,27.1688235 23.5783922,28.3566667 C24.1093725,29.544902 24.8352549,30.5617647 25.7583922,31.4080392 C26.6803529,32.255098 27.7674118,32.9056863 29.0183922,33.3605882 C30.2693725,33.8154902 31.6019216,34.0429412 33.0176078,34.0429412 C34.5085882,34.0429412 35.9489804,33.7264706 37.3391765,33.095098 C38.7289804,32.4637255 39.8791765,31.5664706 40.7889804,30.4037255 L36.8085882,27.4845098 C36.3281961,28.1421569 35.7662353,28.6786275 35.1215294,29.0958824 C34.4772157,29.5127451 33.6870196,29.7213725 32.7521176,29.7213725 C31.6399608,29.7213725 30.705451,29.3990196 29.9470196,28.7547059 C29.1889804,28.11 28.6960392,27.244902 28.4685882,26.1578431 L28.4685882,26.1578431 Z M44.2956471,54.7821569 C45.0917255,53.9233333 46.2101569,53.4935294 47.650549,53.4935294 C49.0909412,53.4935294 50.2093725,53.9233333 51.005451,54.7821569 C51.8015294,55.6413725 52.1995686,56.7664706 52.1995686,58.1558824 C52.1995686,59.5460784 51.8015294,60.6707843 51.005451,61.5296078 C50.2093725,62.3892157 49.0909412,62.8186275 47.650549,62.8186275 C46.2101569,62.8186275 45.0917255,62.3892157 44.2956471,61.5296078 C43.4995686,60.6707843 43.1015294,59.5460784 43.1015294,58.1558824 C43.1015294,56.7664706 43.4995686,55.6413725 44.2956471,54.7821569 L44.2956471,54.7821569 Z M47.650549,48.4892157 C46.2348627,48.4892157 44.9023137,48.7166667 43.6513333,49.1715686 C42.4003529,49.6264706 41.3132941,50.277451 40.3913333,51.1241176 C39.4681961,51.9707843 38.7423137,52.9884314 38.2113333,54.1754902 C37.6807451,55.3637255 37.4152549,56.6903922 37.4152549,58.1558824 C37.4152549,59.6221569 37.6807451,60.9488235 38.2113333,62.1366667 C38.7423137,63.3245098 39.4681961,64.3417647 40.3913333,65.1880392 C41.3132941,66.0347059 42.4003529,66.6852941 43.6513333,67.1401961 C44.9023137,67.5954902 46.2348627,67.8229412 47.650549,67.8229412 C49.0658431,67.8229412 50.3991765,67.5954902 51.6497647,67.1401961 C52.9011373,66.6852941 53.9874118,66.0347059 54.9101569,65.1880392 C55.8321176,64.3417647 56.5591765,63.3245098 57.0897647,62.1366667 C57.6203529,60.9488235 57.8858431,59.6221569 57.8858431,58.1558824 C57.8858431,56.6903922 57.6203529,55.3637255 57.0897647,54.1754902 C56.5591765,52.9884314 55.8321176,51.9707843 54.9101569,51.1241176 C53.9874118,50.277451 52.9011373,49.6264706 51.6497647,49.1715686 C50.3991765,48.7166667 49.0658431,48.4892157 47.650549,48.4892157 L47.650549,48.4892157 Z M56.8807451,19.8080392 C57.2721176,19.8715686 57.6701569,19.9664706 58.0748627,20.0923529 L58.0748627,14.8990196 C57.7964314,14.8233333 57.4932941,14.7731373 57.1650588,14.7476471 C56.8364314,14.722549 56.5074118,14.7096078 56.1791765,14.7096078 C54.9152549,14.7096078 53.8670196,14.9939216 53.032902,15.562549 C52.1987843,16.1311765 51.4787843,16.9841176 50.8721176,18.1213725 L50.7964314,18.1213725 L50.7964314,15.1645098 L45.1101569,15.1645098 L45.1101569,33.5880392 L50.7964314,33.5880392 L50.7964314,25.8923529 C50.7964314,24.982549 50.8466275,24.1488235 50.9478039,23.3903922 C51.0485882,22.6323529 51.2701569,21.9821569 51.6113333,21.4382353 C51.9525098,20.895098 52.4387843,20.4715686 53.0709412,20.1684314 C53.7023137,19.864902 54.5619216,19.7135294 55.6485882,19.7135294 C56.078,19.7135294 56.4885882,19.7452941 56.8807451,19.8080392 L56.8807451,19.8080392 Z M63.0787843,48.9441176 L59.4395686,48.9441176 L59.4395686,53.4935294 L63.0787843,53.4935294 L63.0787843,62.2503922 C63.0787843,63.2609804 63.2493725,64.1205882 63.590549,64.8276471 C63.9317255,65.5358824 64.405451,66.1107843 65.0121176,66.5527451 C65.6187843,66.995098 66.3258431,67.3178431 67.1348627,67.5194118 C67.9434902,67.7213725 68.8278039,67.8229412 69.7885882,67.8229412 C70.445451,67.8229412 71.1152549,67.7845098 71.7976078,67.7092157 C72.4799608,67.6331373 73.1368235,67.4817647 73.7689804,67.2539216 L73.7689804,62.5154902 C73.5160392,62.7433333 73.1434902,62.8888235 72.650549,62.9511765 C72.1576078,63.0147059 71.7599608,63.0460784 71.4564314,63.0460784 C70.8497647,63.0460784 70.363098,62.9645098 69.9968235,62.7998039 C69.630549,62.6354902 69.3583922,62.4017647 69.1819216,62.0982353 C69.0050588,61.7954902 68.8909412,61.4354902 68.8407451,61.0178431 C68.7897647,60.6013725 68.7650588,60.1401961 68.7650588,59.6343137 L68.7650588,53.4935294 L73.7689804,53.4935294 L73.7689804,48.9441176 L68.7650588,48.9441176 L68.7650588,43.4852941 L63.0787843,43.4852941 L63.0787843,48.9441176 Z M84.4964314,33.5880392 L90.1823137,33.5880392 L90.1823137,22.7080392 C90.1823137,21.5962745 90.0748627,20.5539216 89.8607451,19.5805882 C89.645451,18.6080392 89.2917255,17.7613725 88.7991765,17.0409804 C88.3062353,16.3205882 87.6360392,15.7519608 86.7901569,15.335098 C85.9427059,14.9182353 84.9003529,14.7096078 83.6623137,14.7096078 C82.2976078,14.7096078 81.1474118,14.962549 80.2125098,15.4676471 C79.2776078,15.9735294 78.4815294,16.8201961 77.8246667,18.0076471 C77.3187843,16.8703922 76.5670196,16.0362745 75.5689804,15.5056863 C74.5701569,14.975098 73.4270196,14.7096078 72.1383922,14.7096078 C71.4560392,14.7096078 70.8238824,14.7982353 70.2427059,14.975098 C69.6611373,15.1519608 69.1434902,15.3794118 68.6885882,15.6570588 C68.2336863,15.9354902 67.8415294,16.2511765 67.5132941,16.604902 C67.1846667,16.9590196 66.9317255,17.3127451 66.7552549,17.6664706 L66.6795686,17.6664706 L66.6795686,15.1645098 L61.2207451,15.1645098 L61.2207451,33.5880392 L66.9070196,33.5880392 L66.9070196,24.4139216 C66.9070196,23.8076471 66.9450588,23.2264706 67.0207451,22.6703922 C67.0964314,22.1147059 67.2540784,21.6154902 67.4944706,21.1731373 C67.7344706,20.7311765 68.0819216,20.3766667 68.5368235,20.1115686 C68.9917255,19.8460784 69.585451,19.7135294 70.3187843,19.7135294 C70.9756471,19.7135294 71.4748627,19.864902 71.8160392,20.1684314 C72.1572157,20.4715686 72.4034902,20.8382353 72.5552549,21.2676471 C72.7070196,21.6978431 72.7952549,22.1527451 72.8207451,22.6323529 C72.845451,23.1127451 72.8583922,23.517451 72.8583922,23.8452941 L72.8583922,33.5880392 L78.5446667,33.5880392 L78.5446667,23.8452941 C78.5446667,23.29 78.6015294,22.7590196 78.7152549,22.2531373 C78.8289804,21.7480392 79.0187843,21.3056863 79.2838824,20.9264706 C79.5493725,20.5476471 79.903098,20.2507843 80.345451,20.0358824 C80.7874118,19.8213725 81.3368235,19.7135294 81.9944706,19.7135294 C82.9289804,19.7135294 83.5799608,20.0233333 83.9470196,20.6421569 C84.312902,21.2617647 84.4964314,22.0009804 84.4964314,22.8598039 L84.4964314,33.5880392 Z M94.1258431,53.7586275 C93.9485882,52.6970588 93.6136863,51.775098 93.1207451,50.9915686 C92.6281961,50.2084314 91.9391765,49.595098 91.0552549,49.1527451 C90.170549,48.7107843 89.0078039,48.4892157 87.5674118,48.4892157 C86.885451,48.4892157 86.252902,48.5782353 85.6721176,48.755098 C85.090549,48.9315686 84.5850588,49.1590196 84.1556471,49.4370588 C83.725451,49.7154902 83.3595686,50.0311765 83.0560392,50.384902 C82.7532941,50.7390196 82.538,51.0927451 82.4117255,51.4460784 L82.3360392,51.4460784 L82.3360392,38.7092157 L76.6497647,38.7092157 L76.6497647,67.3676471 L82.3360392,67.3676471 L82.3360392,58.1939216 C82.3360392,57.5872549 82.3740784,57.0064706 82.4497647,56.4503922 C82.5258431,55.8947059 82.683098,55.395098 82.9234902,54.9527451 C83.1634902,54.5107843 83.5113333,54.1566667 83.9662353,53.8911765 C84.4211373,53.6256863 85.0144706,53.4935294 85.7478039,53.4935294 C86.4803529,53.4935294 87.0427059,53.644902 87.4348627,53.9480392 C87.8262353,54.2511765 88.1172157,54.6433333 88.3070196,55.1233333 C88.4960392,55.6037255 88.6097647,56.1280392 88.6478039,56.6966667 C88.6858431,57.264902 88.7046667,57.8147059 88.7046667,58.3456863 L88.7046667,67.3676471 L94.3909412,67.3676471 L94.3909412,57.2080392 C94.3909412,55.9703922 94.3019216,54.8198039 94.1258431,53.7586275 L94.1258431,53.7586275 Z M105.762706,26.7264706 C105.762706,27.3080392 105.642314,27.8135294 105.402706,28.2429412 C105.161922,28.6727451 104.839961,29.0264706 104.436431,29.3041176 C104.031333,29.582549 103.570549,29.7970588 103.052118,29.9488235 C102.534078,30.1001961 101.996824,30.1762745 101.441137,30.1762745 C100.809373,30.1762745 100.203098,30.0119608 99.6215294,29.6833333 C99.0399608,29.355098 98.7501569,28.8492157 98.7501569,28.1672549 C98.7501569,27.5354902 98.958,27.0429412 99.3752549,26.6884314 C99.7921176,26.335098 100.297216,26.0696078 100.891725,25.8923529 C101.485059,25.7158824 102.104667,25.6080392 102.74898,25.5703922 C103.393294,25.5323529 103.930549,25.5135294 104.359961,25.5135294 L105.762706,25.5135294 L105.762706,26.7264706 Z M105.762706,33.5880392 L110.994078,33.5880392 L110.994078,24.2245098 C110.994078,22.6833333 110.867412,21.3245098 110.614863,20.1496078 C110.361922,18.9743137 109.913686,17.982549 109.269373,17.1735294 C108.624667,16.364902 107.765451,15.7519608 106.691725,15.335098 C105.616824,14.9182353 104.246235,14.7096078 102.578392,14.7096078 C101.061922,14.7096078 99.5960392,14.9558824 98.1811373,15.4488235 C96.765451,15.9417647 95.5274118,16.6805882 94.4658431,17.6664706 L97.4987843,20.775098 C98.1050588,20.0923529 98.7932941,19.5558824 99.5646667,19.1637255 C100.335647,18.7723529 101.188196,18.5762745 102.12349,18.5762745 C103.10898,18.5762745 103.962314,18.8735294 104.682706,19.4668627 C105.402706,20.0613725 105.762706,20.8637255 105.762706,21.8743137 C104.979176,21.8743137 104.126627,21.8872549 103.203882,21.9119608 C102.281137,21.937451 101.358784,22.0135294 100.436431,22.1394118 C99.5136863,22.2664706 98.623098,22.4617647 97.7638824,22.7272549 C96.9050588,22.9923529 96.1399608,23.3656863 95.470549,23.8452941 C94.8007451,24.3256863 94.2701569,24.9323529 93.8783922,25.664902 C93.4862353,26.3982353 93.2913333,27.295098 93.2913333,28.3566667 C93.2913333,29.2919608 93.4674118,30.1135294 93.8215294,30.8205882 C94.1756471,31.5284314 94.6556471,32.122549 95.2619216,32.6021569 C95.8685882,33.082549 96.5697647,33.4429412 97.3658431,33.682549 C98.1623137,33.922549 98.9893725,34.0429412 99.8489804,34.0429412 C101.011333,34.0429412 102.117216,33.8276471 103.165843,33.3982353 C104.214471,32.9688235 105.054863,32.2609804 105.68702,31.2754902 L105.762706,31.2754902 L105.762706,33.5880392 Z M111.032118,56.0707843 L103.526235,56.0707843 C103.551333,55.6166667 103.659176,55.1801961 103.84898,54.7629412 C104.038,54.3460784 104.30349,53.9801961 104.644667,53.6637255 C104.985843,53.3480392 105.396431,53.0892157 105.876824,52.8864706 C106.356431,52.6845098 106.912902,52.5833333 107.544667,52.5833333 C108.580745,52.5833333 109.42702,52.9245098 110.084667,53.6072549 C110.741922,54.2892157 111.057216,55.1111765 111.032118,56.0707843 L111.032118,56.0707843 Z M116.112118,54.1754902 C115.707412,52.9884314 115.132118,51.9707843 114.387412,51.1241176 C113.641529,50.277451 112.731725,49.6264706 111.658,49.1715686 C110.583098,48.7166667 109.389373,48.4892157 108.075255,48.4892157 C106.659961,48.4892157 105.32702,48.7166667 104.076431,49.1715686 C102.825059,49.6264706 101.738392,50.277451 100.816039,51.1241176 C99.8936863,51.9707843 99.1670196,52.9884314 98.6368235,54.1754902 C98.105451,55.3637255 97.8399608,56.6903922 97.8399608,58.1558824 C97.8399608,59.6221569 98.105451,60.9488235 98.6368235,62.1366667 C99.1670196,63.3245098 99.8936863,64.3417647 100.816039,65.1880392 C101.738392,66.0347059 102.825059,66.6852941 104.076431,67.1401961 C105.32702,67.5954902 106.659961,67.8229412 108.075255,67.8229412 C109.566627,67.8229412 111.006627,67.5060784 112.396824,66.875098 C113.786627,66.2433333 114.936824,65.3460784 115.846627,64.1833333 L111.866235,61.2645098 C111.385843,61.9217647 110.824275,62.4586275 110.179176,62.8754902 C109.535255,63.2923529 108.744667,63.5009804 107.810157,63.5009804 C106.697608,63.5009804 105.763098,63.1786275 105.004667,62.5343137 C104.246627,61.89 103.753686,61.024902 103.526235,59.937451 L116.718392,59.937451 L116.718392,58.1558824 C116.718392,56.6903922 116.516039,55.3637255 116.112118,54.1754902 L116.112118,54.1754902 Z M126.611725,33.5880392 L132.298,33.5880392 L132.298,23.4284314 C132.298,22.1903922 132.209373,21.0401961 132.032902,19.9786275 C131.856039,18.917451 131.520745,17.995098 131.028196,17.2115686 C130.535255,16.4284314 129.846627,15.8154902 128.962314,15.3731373 C128.077216,14.9311765 126.915255,14.7096078 125.474471,14.7096078 C124.792118,14.7096078 124.159961,14.7982353 123.579176,14.975098 C122.998,15.1519608 122.479961,15.3794118 122.025059,15.6570588 C121.570157,15.9354902 121.177608,16.2511765 120.849765,16.604902 C120.521137,16.9590196 120.268588,17.3127451 120.091725,17.6664706 L120.015647,17.6664706 L120.015647,15.1645098 L114.556824,15.1645098 L114.556824,33.5880392 L120.243098,33.5880392 L120.243098,24.4139216 C120.243098,23.8076471 120.281137,23.2264706 120.356824,22.6703922 C120.433294,22.1147059 120.590157,21.6154902 120.830941,21.1731373 C121.070941,20.7311765 121.418392,20.3766667 121.873294,20.1115686 C122.328588,19.8460784 122.921529,19.7135294 123.654863,19.7135294 C124.387804,19.7135294 124.949765,19.864902 125.341922,20.1684314 C125.733294,20.4715686 126.024275,20.8637255 126.213686,21.3433333 C126.403098,21.8237255 126.516824,22.3480392 126.554863,22.9166667 C126.593294,23.4852941 126.611725,24.035098 126.611725,24.5656863 L126.611725,33.5880392 Z M131.938392,53.5880392 C132.329765,53.6511765 132.727804,53.7460784 133.13251,53.8723529 L133.13251,48.6790196 C132.854078,48.6029412 132.550941,48.5527451 132.222706,48.5272549 C131.894078,48.5021569 131.565059,48.4892157 131.236824,48.4892157 C129.972902,48.4892157 128.924667,48.7735294 128.090549,49.342549 C127.256431,49.9107843 126.536431,50.7641176 125.929765,51.9009804 L125.854078,51.9009804 L125.854078,48.9441176 L120.167804,48.9441176 L120.167804,67.3676471 L125.854078,67.3676471 L125.854078,59.6723529 C125.854078,58.762549 125.904275,57.9284314 126.005843,57.1707843 C126.106235,56.4119608 126.327804,55.7617647 126.66898,55.2178431 C127.010157,54.6747059 127.496431,54.2511765 128.12898,53.9480392 C128.759961,53.644902 129.619176,53.4935294 130.706235,53.4935294 C131.136039,53.4935294 131.546235,53.5256863 131.938392,53.5880392 L131.938392,53.5880392 Z M140.638392,54.3276471 C140.638392,53.7719608 140.865843,53.3798039 141.320745,53.1519608 C141.775255,52.9245098 142.242706,52.8107843 142.723098,52.8107843 C144.087804,52.8107843 145.187412,53.3296078 146.021529,54.364902 L149.508588,50.9154902 C148.649373,50.0056863 147.600353,49.3747059 146.362314,49.0201961 C145.123882,48.6664706 143.898392,48.4892157 142.685059,48.4892157 C141.724667,48.4892157 140.777216,48.6096078 139.841922,48.8492157 C138.90702,49.09 138.079569,49.462549 137.359569,49.9676471 C136.638784,50.4735294 136.057216,51.1178431 135.615255,51.9009804 C135.172902,52.6845098 134.952118,53.6198039 134.952118,54.7060784 C134.952118,55.8688235 135.185843,56.7978431 135.653294,57.4923529 C136.120745,58.1880392 136.714863,58.7245098 137.434863,59.1037255 C138.155255,59.482549 138.925843,59.7672549 139.747804,59.9566667 C140.568196,60.1460784 141.339569,60.3237255 142.059569,60.4876471 C142.779961,60.6519608 143.374078,60.8539216 143.841529,61.0939216 C144.30898,61.3343137 144.542706,61.6947059 144.542706,62.1743137 C144.542706,62.6801961 144.277216,63.0272549 143.746627,63.2170588 C143.216039,63.4060784 142.622314,63.5009804 141.965059,63.5009804 C141.105451,63.5009804 140.354078,63.3307843 139.709373,62.9892157 C139.065059,62.6480392 138.477216,62.1492157 137.946627,61.4919608 L134.497216,65.3205882 C135.406627,66.2562745 136.518784,66.9072549 137.832902,67.2727451 C139.146627,67.6390196 140.44898,67.8229412 141.737608,67.8229412 C142.723098,67.8229412 143.721137,67.7276471 144.732118,67.5382353 C145.743098,67.3492157 146.65251,67.0209804 147.461529,66.5527451 C148.270157,66.0852941 148.933686,65.4660784 149.452118,64.695098 C149.969373,63.9245098 150.22898,62.9452941 150.22898,61.7570588 C150.22898,60.595098 149.994863,59.6664706 149.527804,58.9707843 C149.060353,58.2762745 148.466235,57.7268627 147.745843,57.3217647 C147.025843,56.9178431 146.254471,56.6205882 145.434078,56.4311765 C144.612118,56.2413725 143.841529,56.064902 143.121137,55.9001961 C142.401137,55.7362745 141.80702,55.5468627 141.339569,55.3315686 C140.872118,55.117451 140.638392,54.7821569 140.638392,54.3276471 L140.638392,54.3276471 Z" id="Fill-1" fill="#FFFFFF"></path>
                <path d="M156.912902,67.8227843 C158.554863,67.8227843 159.885451,66.4914118 159.885451,64.8502353 C159.885451,63.2082745 158.554863,61.8776863 156.912902,61.8776863 C155.271333,61.8776863 153.940353,63.2082745 153.940353,64.8502353 C153.940353,66.4914118 155.271333,67.8227843 156.912902,67.8227843" id="Fill-4" fill="#FFF100"></path>
                <path d="M155.577882,84.9608627 C155.759059,85.1330196 156.429255,85.6675294 157.571608,85.6675294 C158.850039,85.6675294 159.655922,84.8067451 159.655922,83.8734118 C159.655922,82.7036078 158.641804,82.1777255 157.761804,81.824 C157.026902,81.5247843 156.692,81.2345882 156.692,80.8083137 C156.692,80.5185098 156.973176,80.1738039 157.490039,80.1738039 C157.988471,80.1738039 158.67749,80.6271373 158.750431,80.6722353 C158.858667,80.7447843 158.995137,80.6722353 159.066902,80.5636078 L159.411216,80.0475294 C159.475137,79.956549 159.447294,79.8028235 159.357098,79.7483137 C159.175922,79.6122353 158.469255,79.1412549 157.544549,79.1412549 C156.103373,79.1412549 155.504941,80.0741961 155.504941,80.8812549 C155.504941,81.9510588 156.356314,82.4953725 157.208471,82.8400784 C157.970824,83.1483137 158.36102,83.4655686 158.36102,83.9275294 C158.36102,84.3173333 158.006902,84.6259608 157.535137,84.6259608 C156.945333,84.6259608 156.211608,84.0906667 156.16651,84.064 C156.084941,84.0004706 155.930824,84.0004706 155.858667,84.1271373 L155.532784,84.6894902 C155.451216,84.8345882 155.495922,84.8792941 155.577882,84.9608627 L155.577882,84.9608627 Z M138.608471,85.4047843 C138.608471,85.4949804 138.680627,85.576549 138.780235,85.576549 L142.468471,85.576549 C142.568471,85.576549 142.64102,85.4949804 142.64102,85.4047843 L142.64102,84.6616471 C142.64102,84.5718431 142.568471,84.4902745 142.468471,84.4902745 L139.785333,84.4902745 L139.785333,82.9024314 L142.024549,82.9024314 C142.115529,82.9024314 142.197098,82.8298824 142.197098,82.7302745 L142.197098,81.978902 C142.197098,81.8879216 142.115529,81.8063529 142.024549,81.8063529 L139.785333,81.8063529 L139.785333,80.318902 L142.468471,80.318902 C142.568471,80.318902 142.64102,80.2373333 142.64102,80.1471373 L142.64102,79.404 C142.64102,79.3138039 142.568471,79.2326275 142.468471,79.2326275 L138.780235,79.2326275 C138.680627,79.2326275 138.608471,79.3138039 138.608471,79.404 L138.608471,85.4047843 Z M123.804941,85.4047843 C123.804941,85.4949804 123.88651,85.576549 123.977098,85.576549 L124.819451,85.576549 C124.910431,85.576549 124.992,85.4949804 124.992,85.4047843 L124.992,79.4043922 C124.992,79.3141961 124.910431,79.2326275 124.819451,79.2326275 L123.977098,79.2326275 C123.88651,79.2326275 123.804941,79.3141961 123.804941,79.4043922 L123.804941,85.4047843 Z M108.150431,85.4047843 C108.150431,85.4949804 108.232,85.576549 108.322196,85.576549 L109.164549,85.576549 C109.255137,85.576549 109.336314,85.4949804 109.336314,85.4047843 L109.336314,80.318902 L110.723373,80.318902 C110.82298,80.318902 110.895922,80.2373333 110.895922,80.1471373 L110.895922,79.404 C110.895922,79.3138039 110.82298,79.2326275 110.723373,79.2326275 L106.76298,79.2326275 C106.663765,79.2326275 106.591216,79.3138039 106.591216,79.404 L106.591216,80.1471373 C106.591216,80.2373333 106.663765,80.318902 106.76298,80.318902 L108.150431,80.318902 L108.150431,85.4047843 Z M90.4818039,82.1243922 L90.4818039,80.318902 L91.959451,80.318902 C92.4402353,80.318902 92.8574902,80.7181176 92.8574902,81.1985098 C92.8574902,81.7067451 92.4402353,82.1243922 91.959451,82.1243922 L90.4818039,82.1243922 Z M89.2951373,85.4047843 C89.2951373,85.4949804 89.3672941,85.576549 89.4672941,85.576549 L90.3006275,85.576549 C90.3908235,85.576549 90.4723922,85.4949804 90.4723922,85.4047843 L90.4723922,83.0926275 L91.479451,83.0926275 L92.6853333,85.4949804 C92.7037647,85.5310588 92.7484706,85.576549 92.8304314,85.576549 L93.7814118,85.576549 C93.9355294,85.576549 93.9990588,85.431451 93.9355294,85.3134118 L92.6943529,83.0110588 C93.4821961,82.6945882 94.0347451,82.0149804 94.0347451,81.1804706 C94.0347451,80.1012549 93.1476863,79.2326275 92.059451,79.2326275 L89.4672941,79.2326275 C89.3672941,79.2326275 89.2951373,79.3138039 89.2951373,79.404 L89.2951373,85.4047843 Z M71.999451,85.4047843 C71.999451,85.4949804 72.072,85.576549 72.1712157,85.576549 L75.859451,85.576549 C75.9598431,85.576549 76.0316078,85.4949804 76.0316078,85.4047843 L76.0316078,84.6616471 C76.0316078,84.5718431 75.9598431,84.4902745 75.859451,84.4902745 L73.1763137,84.4902745 L73.1763137,82.9024314 L75.4155294,82.9024314 C75.5061176,82.9024314 75.5876863,82.8298824 75.5876863,82.7302745 L75.5876863,81.978902 C75.5876863,81.8879216 75.5061176,81.8063529 75.4155294,81.8063529 L73.1763137,81.8063529 L73.1763137,80.318902 L75.859451,80.318902 C75.9598431,80.318902 76.0316078,80.2373333 76.0316078,80.1471373 L76.0316078,79.404 C76.0316078,79.3138039 75.9598431,79.2326275 75.859451,79.2326275 L72.1712157,79.2326275 C72.072,79.2326275 71.999451,79.3138039 71.999451,79.404 L71.999451,85.4047843 Z M55.844549,82.1694902 L55.844549,80.3459608 L56.8963137,80.3459608 C57.4041569,80.3459608 57.8308235,80.7267451 57.8308235,81.2263529 C57.8308235,81.7612549 57.4041569,82.1694902 56.8963137,82.1694902 L55.844549,82.1694902 Z M54.6672941,85.4047843 C54.6672941,85.4949804 54.739451,85.576549 54.839451,85.576549 L55.672,85.576549 C55.7629804,85.576549 55.844549,85.4949804 55.844549,85.4047843 L55.844549,83.2738039 L56.9778824,83.2738039 C58.084549,83.2738039 58.9990588,82.3592941 58.9990588,81.2349804 C58.9990588,80.1377255 58.084549,79.2326275 56.9688627,79.2326275 L54.839451,79.2326275 C54.739451,79.2326275 54.6672941,79.3138039 54.6672941,79.404 L54.6672941,85.4047843 Z M36.1735686,82.4138039 C36.1735686,81.2710588 37.1072941,80.318902 38.2496471,80.318902 C39.3927843,80.318902 40.3351373,81.2710588 40.3351373,82.4138039 C40.3351373,83.5557647 39.3927843,84.4902745 38.2496471,84.4902745 C37.1072941,84.4902745 36.1735686,83.5557647 36.1735686,82.4138039 L36.1735686,82.4138039 Z M34.9963137,82.4138039 C34.9963137,84.2271373 36.4363137,85.6675294 38.2496471,85.6675294 C40.0633725,85.6675294 41.5123922,84.2271373 41.5123922,82.4138039 C41.5123922,80.6000784 40.0633725,79.1412549 38.2496471,79.1412549 C36.4363137,79.1412549 34.9963137,80.6000784 34.9963137,82.4138039 L34.9963137,82.4138039 Z M18.6331765,82.1243922 L18.6331765,80.318902 L20.1112157,80.318902 C20.592,80.318902 21.0092549,80.7181176 21.0092549,81.1985098 C21.0092549,81.7067451 20.592,82.1243922 20.1112157,82.1243922 L18.6331765,82.1243922 Z M17.446902,85.4047843 C17.446902,85.4949804 17.5190588,85.576549 17.6186667,85.576549 L18.452,85.576549 C18.5425882,85.576549 18.6241569,85.4949804 18.6241569,85.4047843 L18.6241569,83.0926275 L19.6304314,83.0926275 L20.837098,85.4949804 C20.8551373,85.5310588 20.9002353,85.576549 20.9818039,85.576549 L21.9331765,85.576549 C22.086902,85.576549 22.1500392,85.431451 22.086902,85.3134118 L20.8461176,83.0110588 C21.6335686,82.6945882 22.1865098,82.0149804 22.1865098,81.1804706 C22.1865098,80.1012549 21.2986667,79.2326275 20.2108235,79.2326275 L17.6186667,79.2326275 C17.5190588,79.2326275 17.446902,79.3138039 17.446902,79.404 L17.446902,85.4047843 Z M1.29160784,82.1694902 L1.29160784,80.3459608 L2.34376471,80.3459608 C2.85160784,80.3459608 3.27788235,80.7267451 3.27788235,81.2263529 C3.27788235,81.7612549 2.85160784,82.1694902 2.34376471,82.1694902 L1.29160784,82.1694902 Z M0.114352941,85.4047843 C0.114352941,85.4949804 0.186509804,85.576549 0.286117647,85.576549 L1.11945098,85.576549 C1.21003922,85.576549 1.29160784,85.4949804 1.29160784,85.4047843 L1.29160784,83.2738039 L2.42533333,83.2738039 C3.532,83.2738039 4.44611765,82.3592941 4.44611765,81.2349804 C4.44611765,80.1377255 3.532,79.2326275 2.41631373,79.2326275 L0.286117647,79.2326275 C0.186509804,79.2326275 0.114352941,79.3138039 0.114352941,79.404 L0.114352941,85.4047843 Z" id="Fill-6" fill="#FFFFFF"></path>
            </g>
        </g>
    </g>
</svg>