<?xml version="1.0" encoding="UTF-8"?>
<svg width="160px" height="60px" viewBox="0 0 160 60" version="1.1" xmlns="http://www.w3.org/2000/svg" xmlns:xlink="http://www.w3.org/1999/xlink">
    <!-- Generator: Sketch 48.2 (47327) - http://www.bohemiancoding.com/sketch -->
    <title>Knight Frank Logo</title>
    <desc>Created with Sketch.</desc>
    <defs></defs>
    <g id="Homepage" stroke="none" stroke-width="1" fill="none" fill-rule="evenodd" transform="translate(-31.000000, -23.000000)">
        <g id="Knight-Frank-Logo" transform="translate(31.000000, 23.000000)" fill="#D0103A">
            <polygon id="Fill-1" points="0.311563549 20.8848437 9.99456835 30.4856875 29.2339137 11.4350937 19.5416499 1.83825 0.311563549 1.83825"></polygon>
            <polygon id="Fill-2" points="19.5419928 59.0038125 29.2343501 49.402875 9.9947554 30.32225 0.311657074 39.9381875 0.311657074 59.0038125"></polygon>
            <polygon id="Fill-3" points="28.8646139 49.3607188 38.5919808 59.00375 57.7868705 59.00375 57.7868705 39.7104375 48.2022542 30.1965625"></polygon>
            <polygon id="Fill-4" points="48.2022542 30.6114063 57.7868705 21.1162188 57.7868705 1.83825 38.5919808 1.83825 28.8646139 11.4772812"></polygon>
            <path d="M159.378285,25.9327188 L158.758276,23.0944375 C157.910906,23.3242188 157.525084,23.480125 157.063412,23.480125 C155.437415,23.480125 154.978674,22.8650313 154.978674,20.5632813 L154.978674,11.5115625 L157.988564,11.5115625 L159.223034,8.214875 L154.978674,8.214875 L154.978674,3.24015625 L150.268995,3.9993125 L150.268995,8.214875 L148.41411,8.214875 L148.41411,11.5115625 L150.268995,11.5115625 L150.268995,21.328375 C150.268995,23.022 150.268995,23.3242188 150.572734,24.0949063 C151.115928,25.7030313 153.043544,26.7843438 155.437228,26.7843438 C156.676717,26.7843438 157.988408,26.4743125 159.378285,25.9327188" id="Fill-5"></path>
            <polygon id="Fill-6" points="85.6608969 26.3209063 77.1213933 13.1266875 84.8104101 1.77259375 78.9462566 1.77259375 71.9179017 12.9744063 71.9179017 1.77259375 66.8984676 1.77259375 66.8984676 26.3209063 71.9179017 26.3209063 71.9179017 13.5064375 79.3785612 26.3209063"></polygon>
            <path d="M101.206902,26.3209063 L101.206902,13.1266875 C101.206902,11.972375 101.131146,11.2046875 100.90095,10.5176562 C100.359938,8.98296875 98.5077962,7.9065 96.497036,7.9065 C95.4172254,7.9065 94.1820695,8.134875 93.2548921,8.6744375 C92.48147,9.060125 91.7142518,9.672125 91.170777,10.3640625 L90.8689712,7.9516875 L86.8451439,8.6005625 L86.8451439,26.3209063 L91.6319808,26.3209063 L91.6319808,15.6559687 C91.6319808,14.3498437 92.0185827,13.433875 92.637283,12.8194688 C93.3324868,12.2020625 94.1075923,11.8954687 94.8783333,11.8954687 C96.1911775,11.8954687 96.5741631,12.7425 96.5741631,14.8083437 L96.5741631,26.3209063 L101.206902,26.3209063 Z" id="Fill-7"></path>
            <polygon id="Fill-8" points="109.460312 26.3209062 109.460312 7.8366875 104.668175 8.6005625 104.668175 26.3209062"></polygon>
            <path d="M123.117669,19.107 C123.117669,19.954 123.037954,20.793875 122.729477,21.484625 C122.343811,22.326625 121.575096,22.8650313 120.567144,22.8650313 C117.711259,22.8650313 117.402688,20.8733125 117.402688,17.1148437 C117.402688,13.7372812 118.020204,11.7453125 120.491576,11.7453125 C121.724175,11.7453125 122.654969,12.359375 123.117669,12.8913125 L123.117669,19.107 Z M124.075336,8.39875 C124.075336,8.39875 123.813403,9.41125 123.736432,9.7969375 C122.876436,8.83175 121.418223,7.9065 119.643676,7.9065 C114.004139,7.9065 112.150314,12.9744063 112.150314,17.7275625 C112.150314,22.1753125 114.081204,26.5475 119.410736,26.5475 C120.879954,26.5475 122.575691,25.7030312 123.117669,24.7830937 L123.117669,26.3209063 C123.117669,29.0784687 122.883669,30.3855 119.333048,30.3855 C117.635722,30.3855 115.625367,29.7699375 113.852504,28.8529375 L112.692916,32.1458125 C115.007415,33.2975 117.169125,33.9914375 119.568108,33.9914375 C121.418223,33.9914375 124.043257,33.6818437 125.742266,32.2249375 C127.516408,30.7710313 127.593441,28.1608438 127.593441,25.6276563 L127.611835,7.8366875 L124.075336,8.39875 Z" id="Fill-9"></path>
            <path d="M146.101264,26.3209063 L146.101264,13.6603125 C146.101264,11.8954687 146.02264,11.3575 145.636974,10.3640625 C145.094559,8.75353125 143.24488,7.7598125 140.925612,7.7598125 C138.841933,7.759625 137.064269,8.520125 135.753638,9.97703125 C135.753638,9.74690625 135.828583,8.6744375 135.828583,8.134875 L135.828583,1.3099375 L130.964058,2.093625 L130.964058,26.3209063 L135.828583,26.3209063 L135.828583,16.3486875 C135.828583,14.6729687 136.045904,13.698125 136.602628,13.0508437 C137.314168,12.2130312 138.527252,11.7453125 139.614357,11.7453125 C141.001772,11.7453125 141.467153,12.51175 141.467153,14.1985312 L141.467153,26.3209063 L146.101264,26.3209063 Z" id="Fill-10"></path>
            <path d="M110.035336,3.266375 C110.035336,4.89753125 108.715197,6.2198125 107.087141,6.2198125 C105.457247,6.2198125 104.137077,4.89753125 104.137077,3.266375 C104.137264,1.63459375 105.457247,0.3123125 107.087141,0.3123125 C108.715197,0.3123125 110.035336,1.63459375 110.035336,3.266375" id="Fill-11"></path>
            <path d="M99.1428321,56.1551875 C97.9161559,56.1551875 97.0701894,55.16325 97.0701894,53.7914375 C97.0701894,51.6564375 98.1424868,50.856875 101.445578,50.856875 L101.718391,50.856875 L101.725187,55.0415312 C101.032103,55.8072188 100.062933,56.1551875 99.1428321,56.1551875 Z M106.406434,52.9513125 L106.435053,46.8500312 C106.435053,44.9857187 106.358362,44.4094687 106.124705,43.6488125 C105.434707,41.6665937 103.364995,40.5203437 100.295436,40.5203437 C98.6061535,40.5203437 97.0678825,40.81825 95.3039353,41.5889062 C94.321952,42.01625 93.361199,42.5435625 92.4515108,43.1002187 L94.197283,46.20975 C96.3545659,44.8499062 98.0668249,44.3196562 99.6007626,44.3196562 C101.36736,44.3196562 101.794115,45.0973125 101.794115,47.08025 L101.794115,47.7651562 L100.678422,47.7651562 C94.9201391,47.7651562 92.0049904,49.7504687 92.0049904,53.94125 C92.0051775,57.2083438 93.7883909,59.2095938 97.1780863,59.5355938 L99.1069496,59.5355938 C100.180307,59.4165313 101.101811,59.0779688 101.827348,58.59625 C102.214386,58.364875 102.595719,57.9705 102.982165,57.5923438 C103.365151,58.346625 104.104125,59.0606875 104.957511,59.5355938 L105.512894,59.8056875 L105.765911,59.5355938 L108.192827,56.913625 C106.579549,55.6970313 106.406434,54.8052813 106.406434,52.9513125 Z" id="Fill-12"></path>
            <polygon id="Fill-13" points="80.0947146 34.5 66.817506 34.5 66.817506 58.8967188 71.6514484 58.8967188 71.6514484 48.0740625 77.9423573 48.0740625 77.9423573 44.1173438 71.6514484 44.1173438 71.6514484 38.4002812 79.4814077 38.4002812"></polygon>
            <path d="M91.146554,40.8254063 C90.3788058,40.5203438 90.0694868,40.4452188 89.3782734,40.4452188 C87.6159161,40.4452188 85.8488513,42.0461875 85.083753,43.2638438 L84.6198993,40.8254063 L80.7807218,41.4463125 L80.7807218,58.8967188 L85.54,58.8967188 L85.54,47.7445313 C85.54,46.8319375 85.692446,46.0645625 86.2301535,45.4765313 C86.6870552,44.9857188 87.4568297,44.6372188 88.3216259,44.6372188 C88.860518,44.6372188 89.4775036,44.7925938 89.9380839,45.0192813 L91.146554,40.8254063 Z" id="Fill-14"></path>
            <polygon id="Fill-15" points="128.223458 34.974875 128.223458 58.8967188 132.980772 58.8967188 132.980772 34.2133437"></polygon>
            <polygon id="Fill-16" points="137.586887 48.4552188 143.420739 40.8998438 137.660959 40.8998438 132.980772 48.6816563 139.164751 58.8967188 144.727815 58.8967188"></polygon>
            <path d="M124.63605,58.8967188 L124.63605,45.7818125 C124.63605,44.6372188 124.561542,43.8790313 124.328353,43.1927188 C123.790614,41.6665938 121.946235,40.5990938 119.951717,40.5990938 C118.878391,40.5990938 117.648971,40.8254063 116.729494,41.3640938 C115.960125,41.7472188 115.194403,42.3522188 114.657724,43.0376875 L114.355763,40.6429375 L110.361084,41.287125 L110.361084,58.8967188 L115.116808,58.8967188 L115.116808,48.3038438 C115.116808,47.0091875 115.503691,46.0903438 116.11706,45.4765313 C116.805655,44.8693125 117.573871,44.5609375 118.342679,44.5609375 C119.647199,44.5609375 120.032055,45.4055 120.032055,47.4615938 L120.032149,58.8967188 L124.63605,58.8967188 Z" id="Fill-17"></path>
        </g>
    </g>
</svg>