<?xml version="1.0" encoding="utf-8"?>
<!-- Generator: Adobe Illustrator 15.0.0, SVG Export Plug-In . SVG Version: 6.00 Build 0)  -->
<!DOCTYPE svg PUBLIC "-//W3C//DTD SVG 1.1//EN" "http://www.w3.org/Graphics/SVG/1.1/DTD/svg11.dtd">
<svg version="1.1" id="Layer_1" xmlns="http://www.w3.org/2000/svg" xmlns:xlink="http://www.w3.org/1999/xlink" x="0px" y="0px"
	 width="71.496px" height="93.787px" viewBox="0 0 71.496 93.787" enable-background="new 0 0 71.496 93.787" xml:space="preserve">
<polygon fill="#FFFFFF" points="15.285,82.444 17.967,82.444 17.967,93.389 15.285,93.389 15.285,86.171 11.866,89.59 8.448,86.173 
	8.448,93.389 5.765,93.389 5.765,82.444 8.448,82.444 8.448,82.448 11.866,85.867 15.285,82.448 "/>
<polygon fill="#FFFFFF" points="46.938,93.388 43.661,93.388 39.299,82.455 42.27,82.455 45.331,90.127 45.361,90.127 48.42,82.455 
	51.392,82.455 "/>
<polygon fill="#FFFFFF" points="56.865,82.456 65.722,82.456 65.722,84.737 59.713,84.737 59.713,86.65 65.073,86.65 65.073,88.855 
	59.713,88.855 59.713,90.938 65.73,90.938 65.73,93.389 56.865,93.389 "/>
<path fill="#FFFFFF" d="M29.395,93.787c-3.12,0-5.658-2.633-5.658-5.869c0-3.237,2.538-5.871,5.658-5.871
	c3.121,0,5.658,2.633,5.658,5.871C35.053,91.154,32.516,93.787,29.395,93.787 M29.395,84.794c-1.605,0-2.911,1.401-2.911,3.124
	c0,1.722,1.306,3.122,2.911,3.122c1.605,0,2.912-1.4,2.912-3.122C32.307,86.195,31,84.794,29.395,84.794"/>
<g>
	<defs>
		<path id="SVGID_1_" d="M50.636,49.433h2.442c0.683,0,1.238,0.556,1.238,1.235c0,0.684-0.556,1.238-1.238,1.238h-2.442V49.433z
			 M47.958,46.743v10.915h2.678v-3.062h2.442c2.166,0,3.927-1.76,3.927-3.928c0-2.164-1.761-3.925-3.927-3.925H47.958z
			 M23.438,13.799v0.004l-3.41,3.41l-3.409-3.41v-0.004h-2.675v10.915h2.675v-7.197l3.409,3.408l3.41-3.409v7.198h2.675V13.799
			H23.438z M47.791,16.887c0,2.002,1.636,2.707,3.196,3.151c1.573,0.443,3.134,0.625,3.134,1.588c0,0.812-0.888,1.118-1.745,1.118
			c-1.206,0-2.209-0.413-2.271-1.699l-2.611,0.473c0.25,2.45,2.352,3.427,4.715,3.427c2.402,0,4.755-0.887,4.755-3.653
			c0-1.974-1.589-2.707-3.164-3.15c-1.591-0.442-3.164-0.597-3.164-1.437c0-0.72,0.763-0.933,1.376-0.933
			c0.871,0,1.775,0.333,1.922,1.315l2.646-0.505c-0.293-2.102-2.322-3.011-4.34-3.011C50.191,13.57,47.791,14.504,47.791,16.887
			 M5.766,38.63h27.099v27.101H5.766V38.63z M38.63,38.63h27.1v27.101h-27.1V38.63z M42.547,5.766H65.73v27.1H5.766v-27.1h23.18
			l6.801,6.804L42.547,5.766z M40.161,0l-4.414,4.414L31.334,0H0v71.497h71.496V0H40.161z"/>
	</defs>
	<clipPath id="SVGID_2_">
		<use xlink:href="#SVGID_1_"  overflow="visible"/>
	</clipPath>
	<g clip-path="url(#SVGID_2_)">
		<defs>
			<rect id="SVGID_3_" x="-257.329" y="-26.301" width="1482.218" height="4614.433"/>
		</defs>
		<clipPath id="SVGID_4_">
			<use xlink:href="#SVGID_3_"  overflow="visible"/>
		</clipPath>
		<rect x="-0.009" clip-path="url(#SVGID_4_)" fill="#FFFFFF" width="71.506" height="71.507"/>
	</g>
</g>
</svg>
